<?xml version="1.0" standalone="no"?>
<!DOCTYPE svg PUBLIC "-//W3C//DTD SVG 20010904//EN"
 "http://www.w3.org/TR/2001/REC-SVG-20010904/DTD/svg10.dtd">
<svg version="1.0" xmlns="http://www.w3.org/2000/svg"
 width="896.000000pt" height="512.000000pt" viewBox="0 0 896.000000 512.000000"
 preserveAspectRatio="xMidYMid meet">

<g transform="translate(0.000000,512.000000) scale(0.100000,-0.100000)"
fill="#000000" stroke="none">
<path d="M0 2560 l0 -2560 4480 0 4480 0 0 2560 0 2560 -4480 0 -4480 0 0
-2560z m2954 1529 c219 -32 319 -68 686 -247 249 -121 377 -171 535 -210 175
-44 273 -56 425 -56 197 1 330 32 740 173 267 92 334 105 525 104 170 0 364
-26 480 -63 79 -25 245 -106 374 -183 124 -74 211 -152 330 -297 50 -59 103
-117 119 -129 32 -23 81 -28 99 -10 6 6 17 12 24 13 8 2 22 6 32 11 23 10 36
-3 17 -16 -13 -9 -13 -10 0 -8 29 3 36 -1 54 -35 27 -50 18 -76 -38 -113 -68
-44 -84 -63 -88 -101 -2 -18 -9 -36 -15 -40 -12 -7 -35 -96 -53 -202 -14 -80
-52 -201 -89 -283 -64 -141 -207 -296 -416 -451 -218 -162 -302 -203 -535
-259 -307 -75 -508 -76 -933 -3 -468 80 -635 81 -1000 7 -230 -47 -239 -49
-392 -61 -252 -20 -666 25 -1005 110 -204 52 -535 192 -676 287 -170 115 -359
289 -460 423 -101 134 -175 291 -204 435 -9 44 -20 68 -43 90 -41 41 -74 114
-56 126 10 6 10 9 2 9 -18 0 -27 64 -13 90 8 15 8 30 2 49 -8 24 -5 38 24 88
43 77 104 140 146 151 26 6 44 24 85 83 64 94 176 210 268 280 132 100 404
214 580 245 113 19 310 17 469 -7z"/>
<path d="M2665 4055 c83 -8 172 -19 198 -25 27 -6 53 -8 58 -5 5 3 18 1 28 -5
15 -8 29 -7 53 5 18 8 23 12 12 10 -12 -3 -44 -1 -70 6 -61 13 -111 18 -289
23 l-140 5 150 -14z"/>
<path d="M2430 4043 c-53 -9 -88 -24 -113 -51 l-26 -27 147 3 c81 2 158 -1
171 -6 15 -5 -40 -8 -150 -8 -156 1 -177 -1 -206 -19 -18 -10 -33 -23 -33 -27
0 -4 -16 -25 -35 -47 -19 -21 -35 -41 -35 -44 0 -3 24 -8 53 -10 l52 -3 -60
-2 c-56 -2 -62 -4 -79 -33 -10 -16 -40 -59 -67 -94 -51 -66 -55 -95 -15 -95
21 -1 269 -84 338 -114 l36 -16 101 125 c72 89 96 125 84 125 -10 0 -25 5 -33
10 -10 7 -4 8 21 4 32 -5 38 -2 68 33 18 21 58 64 88 95 62 65 65 59 -42 89
-33 10 -51 18 -39 18 44 2 332 -102 419 -152 41 -23 351 -177 356 -177 3 0 22
23 44 51 l39 51 -23 18 c-47 35 -265 133 -477 215 l-71 27 -61 -30 c-34 -16
-62 -25 -62 -20 0 5 32 23 70 40 39 17 68 33 65 36 -2 3 -21 6 -42 7 -21 2
-104 10 -185 19 -140 15 -243 18 -298 9z m153 -20 c-34 -2 -93 -2 -130 0 -37
2 -9 3 62 3 72 0 102 -1 68 -3z m42 -33 c-3 -5 -14 -10 -23 -9 -14 0 -13 2 3
9 27 11 27 11 20 0z m171 -27 c0 -12 -8 -18 -22 -18 -21 0 -21 1 -6 17 22 22
28 22 28 1z m-536 -72 c0 -5 12 -12 28 -14 l27 -4 -26 -2 c-15 0 -32 6 -39 14
-9 10 -9 15 -1 15 6 0 11 -4 11 -9z m141 -19 c-7 -2 -18 1 -23 6 -8 8 -4 9 13
5 13 -4 18 -8 10 -11z m222 -37 c-3 -9 -8 -14 -10 -11 -3 3 -2 9 2 15 9 16 15
13 8 -4z m47 -9 c0 -3 -4 -8 -10 -11 -5 -3 -10 -1 -10 4 0 6 5 11 10 11 6 0
10 -2 10 -4z m440 -12 c0 -2 -9 -4 -20 -4 -11 0 -20 4 -20 9 0 5 9 7 20 4 11
-3 20 -7 20 -9z m62 -18 c7 4 8 3 4 -4 -5 -8 3 -10 26 -5 18 3 30 3 27 -1 -13
-14 -53 -15 -80 0 -16 8 -29 17 -29 20 0 2 9 0 20 -6 11 -6 26 -8 32 -4z
m-832 -6 c17 -6 9 -7 -25 -3 -27 3 -52 7 -54 9 -8 7 54 2 79 -6z m920 -4 c0
-2 -7 -9 -15 -16 -13 -11 -14 -10 -9 4 5 14 24 23 24 12z m-833 -22 c-3 -3
-12 -4 -19 -1 -8 3 -5 6 6 6 11 1 17 -2 13 -5z m103 -34 c8 -5 11 -10 5 -10
-5 0 -17 5 -25 10 -8 5 -10 10 -5 10 6 0 17 -5 25 -10z m833 -30 c-3 -12 -8
-19 -11 -16 -5 6 5 36 12 36 2 0 2 -9 -1 -20z m-1138 -46 c17 -8 21 -12 10 -8
-11 3 -42 10 -70 14 -49 7 -49 8 -10 8 22 1 54 -6 70 -14z m72 -20 c-3 -3 -12
-4 -19 -1 -8 3 -5 6 6 6 11 1 17 -2 13 -5z m180 -26 c-3 -8 -6 -5 -6 6 -1 11
2 17 5 13 3 -3 4 -12 1 -19z m-110 6 c-3 -3 -12 -4 -19 -1 -8 3 -5 6 6 6 11 1
17 -2 13 -5z m46 -11 c-7 -2 -19 -2 -25 0 -7 3 -2 5 12 5 14 0 19 -2 13 -5z"/>
<path d="M3092 4021 c-9 -5 7 -16 50 -32 86 -32 91 -33 33 -4 -27 14 -57 25
-65 25 -13 0 -13 1 0 10 8 5 11 10 5 10 -5 0 -16 -4 -23 -9z"/>
<path d="M3000 4003 c-8 -2 -22 -7 -30 -10 -8 -2 62 -35 155 -72 204 -81 284
-117 349 -159 38 -25 53 -29 68 -21 17 9 14 13 -25 43 -53 41 -194 112 -347
177 -109 47 -136 54 -170 42z"/>
<path d="M2157 3939 c-76 -34 -135 -64 -132 -67 3 -4 -21 -20 -53 -37 -62 -31
-128 -82 -119 -91 3 -3 31 6 63 19 33 14 94 32 136 42 79 17 92 27 169 121 8
10 31 31 50 46 18 15 32 27 29 27 -3 1 -67 -27 -143 -60z m48 -8 c-12 -10 -65
-24 -65 -16 0 2 15 9 33 14 43 12 42 12 32 2z m-110 -41 c-22 -10 -44 -18 -50
-18 -5 0 8 8 30 19 22 10 45 18 50 18 6 0 -8 -9 -30 -19z"/>
<path d="M3330 3907 c58 -30 141 -73 184 -95 83 -43 118 -46 70 -6 -40 33
-136 82 -151 77 -7 -3 -13 0 -13 5 0 11 -38 25 -59 22 -8 -1 -10 3 -5 11 5 8
2 11 -7 7 -8 -3 -25 -1 -39 5 -14 5 -29 11 -35 13 -5 1 -19 5 -30 9 -11 4 27
-18 85 -48z"/>
<path d="M2710 3795 c-45 -53 -80 -98 -77 -102 4 -3 24 -6 45 -7 33 0 37 -2
23 -13 -10 -7 -20 -8 -25 -2 -12 11 -46 12 -46 1 0 -5 -7 -17 -16 -28 -14 -18
-15 -18 -4 4 7 13 10 26 8 28 -5 4 -181 -209 -186 -225 -2 -5 51 -30 117 -57
67 -26 119 -49 117 -51 -2 -2 -56 16 -119 41 -63 25 -119 46 -124 46 -5 0 -17
-15 -26 -34 -18 -39 -17 -41 51 -75 24 -13 42 -24 40 -27 -3 -2 -30 10 -61 27
l-57 30 -44 -95 c-60 -129 -61 -133 -36 -141 12 -4 19 -9 17 -12 -3 -2 -14 0
-25 6 -18 10 -22 6 -37 -32 -9 -23 -51 -105 -95 -182 -47 -84 -74 -142 -68
-146 6 -4 5 -8 -3 -11 -19 -7 -22 -6 145 -87 166 -81 222 -103 245 -97 9 3 30
-1 46 -9 l30 -14 -30 5 c-58 10 1 -15 152 -66 81 -27 142 -49 135 -49 -51 -3
-432 144 -619 238 -68 33 -125 61 -127 61 -3 0 -7 -8 -9 -17 -2 -11 -3 -9 -2
4 1 17 -16 34 -82 78 -45 31 -86 61 -89 67 -4 6 35 -18 86 -52 50 -34 94 -59
97 -57 3 3 -14 18 -36 33 -23 14 -41 29 -41 31 0 5 15 -3 52 -29 l26 -18 67
115 c36 63 90 168 120 232 29 65 66 147 83 183 l31 65 -72 37 c-40 20 -69 37
-64 38 4 0 38 -16 76 -34 l68 -35 18 40 c10 21 16 40 14 42 -2 2 -31 13 -64
26 -33 12 -76 29 -95 36 -19 8 -75 26 -125 40 -49 15 -99 30 -109 34 -10 4
-67 1 -125 -6 -86 -11 -109 -18 -124 -35 -10 -11 -16 -23 -14 -25 3 -2 35 1
73 8 49 7 83 8 119 0 l50 -10 -56 5 c-50 5 -57 3 -67 -18 -11 -20 -12 -21 -7
-2 5 20 3 21 -51 12 -70 -11 -71 -12 -84 -51 l-10 -32 5 34 5 33 -28 -17 c-15
-10 -40 -29 -55 -44 -21 -19 -26 -21 -21 -8 3 10 29 33 57 52 45 30 54 43 88
126 43 102 42 99 31 99 -5 0 -18 -17 -30 -38 -11 -21 -44 -69 -72 -107 -60
-81 -100 -155 -100 -185 0 -14 -4 -19 -12 -14 -7 4 -8 3 -4 -4 4 -6 8 -24 10
-39 7 -49 27 -114 52 -167 27 -56 69 -118 76 -111 3 3 29 -21 59 -53 30 -31
75 -74 100 -95 l44 -38 -47 31 c-26 16 -50 35 -53 40 -4 6 -11 8 -16 4 -6 -3
-3 -12 8 -20 14 -12 11 -11 -14 1 -35 16 -45 29 -15 18 15 -6 15 -5 3 10 -7 9
-10 17 -5 17 4 0 -5 13 -21 30 -15 16 -32 27 -37 24 -14 -9 -9 -19 20 -38 15
-9 19 -15 10 -12 -19 6 -23 -3 -10 -20 4 -5 0 -2 -8 7 -8 9 -23 30 -32 45 -10
16 -38 60 -63 99 -25 38 -45 74 -45 80 1 5 10 -7 21 -28 33 -62 32 -36 -1 34
-16 35 -27 52 -24 37 3 -16 2 -28 -3 -28 -18 0 -36 -107 -30 -182 5 -74 24
-134 61 -198 l21 -35 6 35 c5 28 7 30 9 10 1 -14 3 -34 4 -45 4 -30 93 -152
159 -218 32 -32 57 -61 54 -63 -7 -7 -116 114 -172 189 -40 55 -51 64 -57 50
-4 -11 -7 -13 -7 -4 -1 7 -17 49 -37 93 -19 43 -42 113 -51 154 -15 73 -14 78
10 177 19 76 24 111 17 137 -5 22 -8 27 -9 13 -1 -12 -8 -28 -16 -37 -8 -8
-15 -32 -15 -55 0 -22 -3 -42 -7 -44 -5 -3 -5 -80 0 -172 9 -203 31 -281 108
-383 17 -22 17 -21 14 40 -4 63 0 52 11 -32 5 -39 16 -55 87 -128 72 -73 222
-207 252 -225 8 -4 9 13 4 51 -7 60 4 200 21 277 l10 46 -62 57 c-35 32 -87
80 -116 107 -30 27 -63 63 -75 80 -11 16 6 2 39 -32 32 -33 92 -91 133 -128
56 -52 75 -65 82 -54 7 11 9 9 9 -7 0 -12 10 -29 23 -38 22 -16 22 -16 0 -6
-12 5 -24 7 -26 3 -25 -42 -33 -326 -12 -378 12 -27 -133 87 -227 180 -43 42
-78 72 -78 66 0 -19 172 -185 238 -230 49 -33 66 -40 77 -31 10 8 23 6 54 -10
55 -27 52 -34 -4 -10 -25 11 -45 16 -45 12 1 -37 147 -132 370 -242 81 -40
338 -145 381 -155 24 -6 26 -4 21 20 -4 22 -18 33 -84 62 -43 20 -77 38 -75
40 2 2 34 -10 70 -27 37 -16 69 -30 72 -30 3 0 5 20 4 44 -3 42 -5 45 -51 67
-26 12 -46 24 -44 26 2 3 22 -5 44 -16 l40 -20 6 31 c3 17 6 43 6 58 0 30 44
248 60 295 7 19 7 31 0 33 -5 2 -2 12 8 22 28 30 155 317 146 331 -4 7 -3 10
2 6 8 -4 80 147 122 254 2 4 -12 12 -30 17 -45 13 -335 129 -356 143 -24 15
-10 10 163 -59 159 -63 225 -86 228 -80 6 8 37 79 37 82 0 4 -223 103 -388
171 -62 26 -111 49 -109 51 5 5 135 -48 322 -131 83 -37 157 -69 165 -71 11
-3 31 29 72 117 l57 122 -139 66 c-76 36 -137 68 -135 70 2 2 61 -24 131 -58
69 -33 131 -61 138 -61 6 0 27 29 47 65 28 48 34 66 25 76 -8 9 -7 10 7 6 12
-5 20 -1 23 11 3 9 10 25 15 34 5 10 9 20 9 23 0 2 -87 48 -192 102 -192 97
-388 183 -419 183 -9 0 -53 -43 -99 -95z m139 -59 c-7 -14 -16 -26 -20 -26 -5
0 0 13 9 29 20 36 27 34 11 -3z m115 -15 c10 -11 13 -22 8 -25 -5 -3 -12 4
-15 15 -5 18 -12 21 -41 17 -19 -2 -32 0 -30 4 10 15 61 8 78 -11z m-157 -17
c-3 -3 -12 -4 -19 -1 -8 3 -5 6 6 6 11 1 17 -2 13 -5z m-40 -10 c-3 -3 -12 -4
-19 -1 -8 3 -5 6 6 6 11 1 17 -2 13 -5z m363 -4 c0 -5 -4 -10 -10 -10 -5 0
-10 5 -10 10 0 6 5 10 10 10 6 0 10 -4 10 -10z m-173 -16 c-3 -3 -12 -4 -19
-1 -8 3 -5 6 6 6 11 1 17 -2 13 -5z m113 -4 c8 -5 11 -10 5 -10 -5 0 -17 5
-25 10 -8 5 -10 10 -5 10 6 0 17 -5 25 -10z m53 -24 c6 6 217 -91 217 -100 0
-3 -48 18 -106 46 -58 27 -108 47 -111 44 -8 -8 -33 13 -33 28 0 6 7 3 14 -6
7 -10 16 -15 19 -12z m-334 -33 c4 -3 -3 -2 -14 2 -11 5 -29 9 -41 9 -11 1
-21 6 -21 13 0 9 10 8 36 -3 19 -8 37 -17 40 -21z m-86 -18 c-3 -9 -8 -14 -10
-11 -3 3 -2 9 2 15 9 16 15 13 8 -4z m147 -5 c19 -11 31 -19 25 -19 -5 0 -26
8 -45 19 -19 11 -30 19 -25 19 6 0 26 -8 45 -19z m-253 4 c-3 -3 -12 -4 -19
-1 -8 3 -5 6 6 6 11 1 17 -2 13 -5z m160 -19 c-4 -8 -11 -15 -17 -15 -6 0 -6
7 2 20 14 22 24 19 15 -5z m-89 8 c-10 -2 -26 -2 -35 0 -10 3 -2 5 17 5 19 0
27 -2 18 -5z m292 -43 c8 -5 11 -10 5 -10 -5 0 -17 5 -25 10 -8 5 -10 10 -5
10 6 0 17 -5 25 -10z m-915 -40 c25 -11 -1 -11 -35 0 -20 6 -21 8 -5 8 11 0
29 -3 40 -8z m101 -35 c25 -19 14 -19 -22 0 -16 8 -22 15 -13 15 8 0 24 -7 35
-15z m-302 -44 c-4 -17 -9 -30 -11 -27 -3 2 -2 19 2 36 9 41 17 33 9 -9z m267
-18 c-12 -20 -14 -14 -5 12 4 9 9 14 11 11 3 -2 0 -13 -6 -23z m-404 -10 c-3
-16 -9 -36 -12 -45 -6 -16 1 -18 66 -19 41 0 83 -5 94 -10 17 -8 15 -8 -7 -4
-19 4 -28 1 -28 -7 0 -10 -3 -9 -9 1 -15 23 -136 9 -167 -20 -13 -12 -24 -30
-25 -38 0 -11 -2 -12 -6 -3 -6 15 45 85 57 77 4 -3 13 18 20 45 12 52 27 71
17 23z m120 -45 c-3 -7 -5 -2 -5 12 0 14 2 19 5 13 2 -7 2 -19 0 -25z m253 -8
c-6 -11 -13 -20 -16 -20 -2 0 0 9 6 20 6 11 13 20 16 20 2 0 0 -9 -6 -20z
m-37 -65 c-3 -9 -8 -14 -10 -11 -3 3 -2 9 2 15 9 16 15 13 8 -4z m578 -40 c63
-30 111 -54 107 -55 -11 0 -189 80 -213 96 -35 25 -10 15 106 -41z m-901 31
c0 -2 -8 -10 -17 -17 -16 -13 -17 -12 -4 4 13 16 21 21 21 13z m333 -28 c23
-13 44 -24 46 -25 2 -2 2 -5 0 -7 -3 -3 -27 8 -54 24 -59 35 -53 40 8 8z
m-362 -16 c-13 -2 -31 3 -39 12 -14 14 -12 14 24 3 33 -10 35 -13 15 -15z m96
6 c-3 -8 -6 -5 -6 6 -1 11 2 17 5 13 3 -3 4 -12 1 -19z m-22 -8 c-3 -5 -11
-10 -16 -10 -6 0 -7 5 -4 10 3 6 11 10 16 10 6 0 7 -4 4 -10z m52 -12 c-3 -8
-6 -5 -6 6 -1 11 2 17 5 13 3 -3 4 -12 1 -19z m313 12 c0 -5 -2 -10 -4 -10 -3
0 -8 5 -11 10 -3 6 -1 10 4 10 6 0 11 -4 11 -10z m-360 -110 c-18 -27 -34 -50
-37 -50 -3 0 5 15 17 33 11 17 26 42 32 55 6 12 13 20 16 17 2 -2 -10 -27 -28
-55z m340 40 c0 -5 -2 -10 -4 -10 -3 0 -8 5 -11 10 -3 6 -1 10 4 10 6 0 11 -4
11 -10z m115 -8 c-3 -3 -11 0 -18 7 -9 10 -8 11 6 5 10 -3 15 -9 12 -12z
m-255 -16 c0 -2 -8 -10 -17 -17 -16 -13 -17 -12 -4 4 13 16 21 21 21 13z m375
-36 c3 -6 -1 -7 -9 -4 -18 7 -21 14 -7 14 6 0 13 -4 16 -10z m-405 -4 c0 -2
-8 -10 -17 -17 -16 -13 -17 -12 -4 4 13 16 21 21 21 13z m465 -34 c-3 -3 -11
0 -18 7 -9 10 -8 11 6 5 10 -3 15 -9 12 -12z m40 -12 c3 -6 -1 -7 -9 -4 -18 7
-21 14 -7 14 6 0 13 -4 16 -10z m-845 -24 c0 -3 -4 -8 -10 -11 -5 -3 -10 -1
-10 4 0 6 5 11 10 11 6 0 10 -2 10 -4z m925 -16 c3 -6 -1 -7 -9 -4 -18 7 -21
14 -7 14 6 0 13 -4 16 -10z m-844 -41 c-5 -13 -10 -19 -10 -12 -1 15 10 45 15
40 3 -2 0 -15 -5 -28z m908 5 c14 -12 -19 -1 -35 12 -18 14 -18 14 6 3 14 -6
27 -13 29 -15z m-336 -25 c-4 -15 0 -27 12 -35 11 -8 14 -14 9 -14 -17 0 -34
23 -34 47 0 13 4 23 9 23 5 0 7 -10 4 -21z m65 -20 c-1 -12 -10 -24 -18 -26
-12 -4 -13 -3 -1 5 8 6 12 20 9 37 -4 17 -2 23 4 17 5 -5 8 -20 6 -33z m358 5
c18 -14 18 -14 -6 -3 -31 14 -36 19 -24 19 6 0 19 -7 30 -16z m-1079 -16 c-3
-8 -6 -5 -6 6 -1 11 2 17 5 13 3 -3 4 -12 1 -19z m1128 -8 c3 -6 -1 -7 -9 -4
-18 7 -21 14 -7 14 6 0 13 -4 16 -10z m40 -20 c3 -6 -1 -7 -9 -4 -18 7 -21 14
-7 14 6 0 13 -4 16 -10z m105 -50 c41 -21 71 -39 65 -39 -5 0 -44 18 -85 39
-41 21 -70 39 -65 39 6 0 44 -18 85 -39z m-904 -11 c3 -6 -5 -3 -20 6 -14 10
-26 19 -26 22 0 7 39 -17 46 -28z m-186 -37 c0 -5 -7 -17 -15 -28 -14 -18 -14
-17 -4 9 12 27 19 34 19 19z m-42 -72 c-7 -10 -14 -17 -17 -15 -4 4 18 35 25
35 2 0 -1 -9 -8 -20z m517 -50 c3 -6 -1 -7 -9 -4 -18 7 -21 14 -7 14 6 0 13
-4 16 -10z m135 -65 c14 -8 21 -14 15 -14 -5 0 -21 6 -35 14 -14 8 -20 14 -15
14 6 0 21 -6 35 -14z m-155 -78 c6 -6 -21 7 -60 28 -38 21 -74 42 -80 48 -5 6
22 -7 60 -28 39 -21 75 -42 80 -48z m105 -47 c19 -11 31 -19 25 -19 -5 0 -26
8 -45 19 -19 11 -30 19 -25 19 6 0 26 -8 45 -19z m365 10 c13 -6 15 -9 5 -9
-8 0 -22 4 -30 9 -18 12 -2 12 25 0z m-725 -87 c0 -8 -99 72 -100 80 0 5 23
-10 50 -33 28 -23 50 -44 50 -47z m840 52 c19 -7 28 -13 20 -13 -8 0 -31 6
-50 13 -19 7 -28 13 -20 13 8 0 31 -6 50 -13z m-340 -37 c10 -6 7 -7 -10 -2
-14 3 -32 11 -40 16 -10 6 -7 7 10 2 14 -3 32 -11 40 -16z m-373 -90 c18 -11
33 -22 33 -25 0 -7 -71 35 -100 59 l-25 20 29 -17 c16 -10 44 -26 63 -37z
m620 6 c-3 -3 -12 -4 -19 -1 -8 3 -5 6 6 6 11 1 17 -2 13 -5z m-242 -212 c-4
-5 -294 143 -320 162 -11 9 57 -24 152 -72 94 -48 170 -88 168 -90z m199 104
c-10 -8 -21 -12 -24 -10 -5 6 21 24 34 24 6 0 1 -6 -10 -14z m56 -113 c0 -4
-18 11 -40 32 -22 21 -40 42 -40 46 0 4 18 -10 40 -32 22 -22 40 -43 40 -46z
m-285 -78 c50 -23 111 -50 138 -60 26 -10 45 -20 43 -22 -10 -11 -496 217
-496 232 0 3 51 -20 113 -51 61 -31 153 -76 202 -99z m170 30 c39 -18 66 -34
60 -34 -5 0 -41 15 -80 34 -38 18 -65 33 -60 33 6 1 42 -14 80 -33z"/>
<path d="M1980 3860 c-8 -5 -10 -10 -5 -10 6 0 17 5 25 10 8 5 11 10 5 10 -5
0 -17 -5 -25 -10z"/>
<path d="M5690 3807 c0 -5 -5 -5 -10 -2 -6 4 -16 2 -23 -3 -11 -9 -113 -41
-195 -62 -59 -15 -233 -93 -229 -103 11 -33 36 -29 136 22 57 28 110 51 118
51 9 0 13 6 10 13 -4 10 2 13 18 9 12 -2 33 2 46 9 13 7 74 28 134 46 110 33
110 33 53 30 -32 -1 -58 -6 -58 -10z"/>
<path d="M5703 3776 c-61 -18 -127 -40 -146 -50 -19 -9 -38 -16 -43 -16 -13 0
-244 -113 -244 -119 1 -3 14 -21 29 -39 l28 -33 109 51 c60 29 120 56 133 61
23 9 23 10 5 32 l-19 22 22 -19 c21 -18 24 -17 115 13 51 17 128 39 172 49
l79 18 -39 32 c-22 18 -49 32 -64 31 -14 0 -75 -15 -137 -33z"/>
<path d="M5930 3782 c34 -29 38 -30 170 -35 155 -6 205 -12 244 -26 15 -6 37
-11 48 -11 34 0 4 26 -50 43 -60 20 -240 47 -357 54 l-90 5 35 -30z"/>
<path d="M1989 3777 c-121 -36 -166 -68 -199 -140 -15 -34 -26 -63 -25 -64 1
-2 50 4 109 12 59 8 112 12 118 9 7 -4 8 -2 4 5 -4 7 20 49 58 101 36 50 66
93 66 95 0 11 -60 3 -131 -18z m-29 -81 c0 -2 -8 -10 -17 -17 -16 -13 -17 -12
-4 4 13 16 21 21 21 13z"/>
<path d="M3539 3779 c18 -11 35 -18 38 -15 5 5 -50 36 -64 36 -4 0 7 -9 26
-21z"/>
<path d="M3709 3736 c41 -24 81 -42 90 -39 9 2 5 -3 -9 -12 -14 -9 -17 -14 -8
-11 16 5 79 -18 245 -88 34 -14 66 -26 70 -26 16 0 -15 18 -51 30 -28 9 -35
15 -25 21 15 9 11 11 -31 14 -22 2 -201 82 -301 136 -68 36 -54 19 20 -25z"/>
<path d="M3578 3747 l-38 -22 85 -47 c126 -69 249 -119 355 -145 116 -28 112
-28 108 -2 -2 17 -29 30 -133 70 -71 27 -137 52 -145 56 -8 3 -22 7 -30 7 -8
1 -14 6 -13 12 1 8 -134 94 -148 94 -2 0 -21 -10 -41 -23z m110 -25 c34 -18
62 -35 62 -38 0 -3 -30 11 -67 30 -36 19 -71 33 -76 29 -6 -3 -7 -1 -3 6 4 7
11 11 14 9 4 -2 35 -18 70 -36z"/>
<path d="M5850 3714 c-100 -25 -189 -54 -255 -83 -145 -63 -255 -117 -255
-126 1 -5 16 -35 34 -65 32 -54 41 -59 81 -45 11 3 7 -1 -8 -10 l-28 -16 22
-37 c18 -29 49 -76 75 -110 1 -2 39 10 84 28 45 17 84 29 86 27 3 -2 -29 -17
-71 -32 -41 -15 -77 -31 -80 -35 -3 -5 1 -34 9 -67 8 -32 25 -109 38 -170 17
-83 27 -113 38 -113 12 0 12 -2 2 -9 -10 -6 -8 -35 13 -148 14 -78 25 -151 25
-163 0 -19 4 -21 28 -16 24 5 25 4 6 -5 -20 -10 -22 -19 -23 -154 l-1 -144 27
-4 28 -4 -27 -2 c-30 -1 -28 2 -51 -113 -9 -47 -10 -68 -3 -68 8 0 8 -3 0 -8
-16 -10 -55 -102 -48 -113 3 -5 1 -9 -4 -9 -8 0 -32 -50 -32 -66 0 -1 10 -5
23 -7 17 -3 16 -5 -8 -6 -23 -1 -36 -11 -53 -38 -12 -19 -21 -37 -20 -38 14
-14 425 -49 452 -39 8 3 24 21 35 39 l20 34 -22 4 c-22 4 -22 4 1 6 17 1 28
12 41 44 l18 42 -76 6 -76 5 81 2 81 2 15 55 15 55 -126 2 -126 2 125 3 c68 2
127 7 130 11 3 4 19 5 35 1 21 -5 24 -7 9 -8 -26 -1 -39 -16 -48 -56 -4 -16
-9 -38 -12 -47 -3 -10 2 -18 13 -21 15 -4 14 -5 -3 -6 -15 -1 -26 -12 -37 -38
l-15 -38 42 -6 41 -6 -46 -1 c-42 -2 -47 -5 -63 -38 -9 -20 -15 -38 -13 -40 4
-4 178 34 271 60 32 9 61 15 63 12 5 -5 -204 -62 -284 -77 -35 -6 -68 -18 -75
-26 -15 -18 15 -13 182 29 171 43 248 67 263 82 7 7 26 20 42 29 26 13 86 67
74 67 -2 0 -26 -7 -53 -15 -27 -8 -56 -15 -65 -14 -9 0 18 10 59 22 62 19 78
28 98 57 13 19 26 33 28 32 9 -6 287 215 346 275 32 32 66 76 77 98 14 27 20
34 21 20 1 -49 116 233 124 304 l6 46 -13 -50 c-27 -101 -89 -195 -204 -306
-100 -97 -152 -140 -237 -194 -32 -20 -60 -45 -63 -54 -13 -49 -50 -125 -63
-129 -13 -4 -12 -2 1 14 24 28 60 134 46 134 -7 0 -6 4 2 9 11 7 13 35 8 147
-4 77 -9 151 -13 166 l-6 27 -40 -20 c-22 -11 -37 -16 -34 -11 3 5 19 15 36
22 16 7 30 17 30 22 0 23 -64 197 -71 193 -4 -3 -5 3 -3 12 3 10 1 34 -3 54
l-8 37 -184 -74 c-101 -41 -186 -73 -188 -70 -2 2 28 16 67 31 69 26 94 49 29
26 -18 -6 -34 -9 -36 -7 -2 2 17 11 43 20 26 9 50 14 52 11 3 -3 -1 -5 -8 -5
-7 0 -11 -3 -7 -6 7 -7 227 78 227 88 0 4 -5 19 -10 33 -8 21 -14 25 -33 20
-20 -6 -20 -6 -6 6 15 13 12 26 -43 144 -152 330 -166 354 -303 518 -44 52
-102 122 -128 156 -27 34 -52 61 -55 60 -4 0 -50 -11 -102 -25z m145 -133
c-11 -5 -36 -11 -55 -14 -35 -6 -34 -6 5 8 43 14 84 19 50 6z m-98 -27 c-3 -3
-12 -4 -19 -1 -8 3 -5 6 6 6 11 1 17 -2 13 -5z m-97 -29 c-19 -7 -42 -13 -50
-13 -8 0 1 6 20 13 19 7 42 13 50 13 8 0 -1 -6 -20 -13z m-88 -28 c-18 -10
-20 -15 -10 -26 11 -11 9 -11 -8 -1 -17 10 -28 9 -69 -9 -26 -12 -50 -20 -52
-17 -2 2 20 13 49 25 29 12 62 26 73 31 30 13 43 11 17 -3z m288 -20 c0 -7 -7
-22 -15 -33 -13 -17 -13 -16 -3 14 13 34 18 40 18 19z m-480 -62 c-14 -8 -29
-14 -35 -14 -5 0 1 6 15 14 14 8 30 14 35 14 6 0 -1 -6 -15 -14z m678 10 c-8
-8 -210 -56 -215 -51 -4 4 181 53 206 55 8 1 12 -1 9 -4z m-418 -70 c14 -19
14 -19 -2 -6 -10 7 -18 18 -18 24 0 6 1 8 3 6 1 -2 9 -13 17 -24z m187 9 c-3
-3 -12 -4 -19 -1 -8 3 -5 6 6 6 11 1 17 -2 13 -5z m228 -11 c-28 -7 -266 -72
-290 -80 -11 -3 -17 -2 -13 2 9 10 279 84 303 83 l20 0 -20 -5z m-387 -38
c-93 -32 -114 -38 -107 -31 10 10 141 56 159 55 8 0 -15 -11 -52 -24z m47 -60
c-42 -18 -81 -29 -73 -20 8 8 79 34 93 34 6 0 -3 -6 -20 -14z m-95 -34 c-8 -5
-26 -11 -40 -15 -21 -5 -20 -3 5 9 32 15 60 20 35 6z m-119 -47 c-29 -13 -56
-24 -60 -23 -9 1 93 49 104 48 6 0 -14 -11 -44 -25z m616 -26 c-3 -8 -6 -5 -6
6 -1 11 2 17 5 13 3 -3 4 -12 1 -19z m-383 -4 c3 -8 2 -12 -4 -9 -6 3 -10 10
-10 16 0 14 7 11 14 -7z m493 -20 c-3 -3 -12 -4 -19 -1 -8 3 -5 6 6 6 11 1 17
-2 13 -5z m-70 -20 c-3 -3 -12 -4 -19 -1 -8 3 -5 6 6 6 11 1 17 -2 13 -5z
m-387 -24 c6 -11 8 -20 6 -20 -3 0 -10 9 -16 20 -6 11 -8 20 -6 20 3 0 10 -9
16 -20z m305 0 c-27 -12 -43 -12 -25 0 8 5 22 9 30 9 10 0 8 -3 -5 -9z m-275
-55 c14 -19 14 -19 -2 -6 -10 7 -18 18 -18 24 0 6 1 8 3 6 1 -2 9 -13 17 -24z
m343 -24 c-5 -43 -3 -50 18 -65 13 -9 19 -16 15 -16 -20 0 -46 34 -46 59 0 27
10 71 16 71 2 0 0 -22 -3 -49z m-313 -5 c0 -3 -4 -8 -10 -11 -5 -3 -10 -1 -10
4 0 6 5 11 10 11 6 0 10 -2 10 -4z m-40 -16 c-8 -5 -19 -10 -25 -10 -5 0 -3 5
5 10 8 5 20 10 25 10 6 0 3 -5 -5 -10z m-50 -20 c-8 -5 -19 -10 -25 -10 -5 0
-3 5 5 10 8 5 20 10 25 10 6 0 3 -5 -5 -10z m87 -37 c-3 -10 -5 -4 -5 12 0 17
2 24 5 18 2 -7 2 -21 0 -30z m-157 7 c-8 -5 -19 -10 -25 -10 -5 0 -3 5 5 10 8
5 20 10 25 10 6 0 3 -5 -5 -10z m380 -16 c0 -8 -5 -12 -10 -9 -6 4 -8 11 -5
16 9 14 15 11 15 -7z m-430 -4 c-8 -5 -19 -10 -25 -10 -5 0 -3 5 5 10 8 5 20
10 25 10 6 0 3 -5 -5 -10z m217 -57 c-3 -10 -5 -4 -5 12 0 17 2 24 5 18 2 -7
2 -21 0 -30z m330 0 c-26 -7 -17 -36 13 -44 14 -4 18 -7 8 -8 -28 -2 -48 10
-48 28 0 22 9 31 29 30 12 -1 12 -2 -2 -6z m93 -28 c-46 -18 -64 -17 -25 0 17
8 37 14 45 14 8 0 -1 -7 -20 -14z m-413 -52 c-3 -10 -5 -4 -5 12 0 17 2 24 5
18 2 -7 2 -21 0 -30z m-167 -33 c0 -5 -2 -10 -4 -10 -3 0 -8 5 -11 10 -3 6 -1
10 4 10 6 0 11 -4 11 -10z m177 -42 c-3 -7 -5 -2 -5 12 0 14 2 19 5 13 2 -7 2
-19 0 -25z m10 -50 c-3 -7 -5 -2 -5 12 0 14 2 19 5 13 2 -7 2 -19 0 -25z m513
22 c-8 -5 -19 -10 -25 -10 -5 0 -3 5 5 10 8 5 20 10 25 10 6 0 3 -5 -5 -10z
m-373 -6 c-3 -3 -12 -4 -19 -1 -8 3 -5 6 6 6 11 1 17 -2 13 -5z m3 -28 c0 -3
-24 -12 -52 -22 -29 -9 -59 -21 -65 -27 -7 -5 -13 -7 -13 -3 0 3 -16 -1 -36
-9 -20 -8 -42 -15 -48 -14 -14 0 20 15 119 50 83 29 95 32 95 25z m190 -45
c-8 -5 -26 -11 -40 -15 -21 -5 -20 -3 5 9 32 15 60 20 35 6z m-455 -11 c-27
-12 -43 -12 -25 0 8 5 22 9 30 9 10 0 8 -3 -5 -9z m-48 -16 c-3 -3 -12 -4 -19
-1 -8 3 -5 6 6 6 11 1 17 -2 13 -5z m423 -4 c-8 -5 -19 -10 -25 -10 -5 0 -3 5
5 10 8 5 20 10 25 10 6 0 3 -5 -5 -10z m-500 -20 c-8 -5 -22 -9 -30 -9 -10 0
-8 3 5 9 27 12 43 12 25 0z m120 1 c-20 -12 -181 -53 -186 -48 -4 4 166 53
191 55 6 1 3 -3 -5 -7z m220 -41 c-8 -5 -19 -10 -25 -10 -5 0 -3 5 5 10 8 5
20 10 25 10 6 0 3 -5 -5 -10z m-55 -20 c-27 -12 -43 -12 -25 0 8 5 22 9 30 9
10 0 8 -3 -5 -9z m-60 -20 c-11 -5 -27 -9 -35 -9 -9 0 -8 4 5 9 11 5 27 9 35
9 9 0 8 -4 -5 -9z m72 -22 c-3 -8 -6 -5 -6 6 -1 11 2 17 5 13 3 -3 4 -12 1
-19z m393 18 c0 -3 -4 -8 -10 -11 -5 -3 -10 -1 -10 4 0 6 5 11 10 11 6 0 10
-2 10 -4z m-553 -22 c-3 -3 -12 -4 -19 -1 -8 3 -5 6 6 6 11 1 17 -2 13 -5z
m-40 -10 c-3 -3 -12 -4 -19 -1 -8 3 -5 6 6 6 11 1 17 -2 13 -5z m-90 -20 c-3
-3 -12 -4 -19 -1 -8 3 -5 6 6 6 11 1 17 -2 13 -5z m300 -16 c-3 -8 -6 -5 -6 6
-1 11 2 17 5 13 3 -3 4 -12 1 -19z m-340 6 c-3 -3 -12 -4 -19 -1 -8 3 -5 6 6
6 11 1 17 -2 13 -5z m350 -56 c-3 -7 -5 -2 -5 12 0 14 2 19 5 13 2 -7 2 -19 0
-25z m10 -50 c-3 -7 -5 -2 -5 12 0 14 2 19 5 13 2 -7 2 -19 0 -25z m8 -28 c-3
-5 -21 -9 -38 -9 l-32 1 30 8 c43 11 47 11 40 0z m-92 -17 c-7 -2 -21 -2 -30
0 -10 3 -4 5 12 5 17 0 24 -2 18 -5z m-70 -10 c-7 -2 -19 -2 -25 0 -7 3 -2 5
12 5 14 0 19 -2 13 -5z m-90 -10 c-13 -2 -33 -2 -45 0 -13 2 -3 4 22 4 25 0
35 -2 23 -4z m254 -70 c-2 -16 -4 -3 -4 27 0 30 2 43 4 28 2 -16 2 -40 0 -55z
m10 -80 c-3 -10 -5 -2 -5 17 0 19 2 27 5 18 2 -10 2 -26 0 -35z m480 41 c-3
-3 -12 -4 -19 -1 -8 3 -5 6 6 6 11 1 17 -2 13 -5z m-70 -20 c-3 -3 -12 -4 -19
-1 -8 3 -5 6 6 6 11 1 17 -2 13 -5z m-160 -40 c-3 -3 -12 -4 -19 -1 -8 3 -5 6
6 6 11 1 17 -2 13 -5z m-44 -11 c-7 -2 -19 -2 -25 0 -7 3 -2 5 12 5 14 0 19
-2 13 -5z m-56 -9 c-3 -3 -12 -4 -19 -1 -8 3 -5 6 6 6 11 1 17 -2 13 -5z m-54
-11 c-7 -2 -21 -2 -30 0 -10 3 -4 5 12 5 17 0 24 -2 18 -5z m-426 -10 c-20 -2
-52 -2 -70 0 -17 2 0 4 38 4 39 0 53 -2 32 -4z m783 -32 c-21 -12 -167 -51
-188 -50 -9 0 21 10 68 23 47 12 92 25 100 29 23 9 37 7 20 -2z m-213 -57 c-3
-3 -12 -4 -19 -1 -8 3 -5 6 6 6 11 1 17 -2 13 -5z m-60 -10 c-3 -3 -12 -4 -19
-1 -8 3 -5 6 6 6 11 1 17 -2 13 -5z m-554 -11 c-18 -2 -48 -2 -65 0 -18 2 -4
4 32 4 36 0 50 -2 33 -4z m510 0 c-7 -2 -19 -2 -25 0 -7 3 -2 5 12 5 14 0 19
-2 13 -5z m-390 -10 c-13 -2 -33 -2 -45 0 -13 2 -3 4 22 4 25 0 35 -2 23 -4z
m315 0 c-10 -2 -26 -2 -35 0 -10 3 -2 5 17 5 19 0 27 -2 18 -5z m142 3 c0 -2
-7 -9 -15 -16 -13 -11 -14 -10 -9 4 5 14 24 23 24 12z m5 -62 c-27 -7 -57 -13
-65 -13 -21 1 70 27 95 27 11 0 -2 -6 -30 -14z m-627 -21 c-10 -2 -28 -2 -40
0 -13 2 -5 4 17 4 22 1 32 -1 23 -4z m517 -3 c-16 -4 -43 -8 -60 -8 -29 1 -29
1 5 8 19 4 46 7 60 8 22 0 22 -1 -5 -8z m190 1 c-6 -5 -21 -11 -35 -15 -21 -5
-20 -3 5 9 35 17 42 18 30 6z m-612 -8 c-13 -2 -33 -2 -45 0 -13 2 -3 4 22 4
25 0 35 -2 23 -4z m135 -10 c-15 -2 -42 -2 -60 0 -18 2 -6 4 27 4 33 0 48 -2
33 -4z"/>
<path d="M6032 3666 c35 -40 93 -110 131 -155 45 -54 75 -81 90 -82 17 -1 18
-2 4 -6 -16 -4 -16 -6 0 -35 17 -28 21 -30 63 -24 67 8 157 16 140 11 -8 -2
-49 -9 -91 -16 l-77 -13 49 -100 c27 -55 54 -103 60 -107 7 -4 7 -8 1 -10 -10
-4 53 -148 106 -241 17 -32 32 -62 32 -68 0 -17 13 -12 121 46 128 69 189 97
196 90 3 -3 -11 -12 -31 -20 -69 -29 -227 -111 -251 -131 -21 -17 -24 -26 -19
-57 4 -24 12 -38 22 -38 10 0 12 -3 4 -13 -8 -9 -5 -28 9 -67 46 -125 61 -204
66 -347 l5 -142 27 17 c259 163 442 383 458 549 6 68 4 66 -61 -36 -46 -71
-48 -77 -43 -130 3 -31 3 -47 1 -36 -3 11 -10 37 -15 58 l-10 38 -43 -38 c-24
-21 -65 -53 -92 -71 -51 -35 -50 -33 71 64 27 22 51 47 53 56 2 9 -25 75 -60
147 -50 103 -66 129 -76 119 -9 -9 -9 -5 0 15 7 14 15 22 16 17 2 -6 38 13 80
42 43 29 86 58 97 64 25 14 29 34 10 58 -13 18 -18 17 -107 -29 -51 -26 -98
-53 -104 -60 -11 -14 -27 -8 -31 12 -1 6 -14 28 -28 48 -22 34 -45 95 -49 135
-3 33 -71 220 -87 241 -16 21 -23 22 -170 23 -131 0 -144 2 -84 8 39 5 106 6
149 2 78 -6 79 -5 65 14 -36 50 -151 181 -157 180 -14 -3 -97 25 -85 29 6 2
27 -3 47 -11 20 -8 36 -11 36 -6 0 15 -43 40 -70 40 -14 0 -47 7 -74 15 -55
17 -82 19 -51 4 17 -8 16 -8 -5 -3 -71 17 -124 23 -208 23 l-93 1 63 -74z
m182 -2 c3 -8 2 -12 -4 -9 -6 3 -10 10 -10 16 0 14 7 11 14 -7z m-23 -11 c13
-16 12 -17 -3 -4 -10 7 -18 15 -18 17 0 8 8 3 21 -13z m244 -41 c41 -9 43 -10
10 -6 -22 2 -87 7 -145 12 l-105 7 90 5 c50 3 92 2 95 -1 3 -3 28 -11 55 -17z
m-262 1 c-7 -2 -19 -2 -25 0 -7 3 -2 5 12 5 14 0 19 -2 13 -5z m155 -180 c-10
-2 -26 -2 -35 0 -10 3 -2 5 17 5 19 0 27 -2 18 -5z m342 -43 c0 -6 -38 -9 -97
-8 l-98 2 95 6 c52 3 96 7 98 8 1 1 2 -2 2 -8z m-13 -142 c-2 -24 -4 -7 -4 37
0 44 2 63 4 43 2 -21 2 -57 0 -80z m62 -72 c-9 -9 -69 -14 -63 -5 3 5 19 9 36
9 17 0 29 -2 27 -4z m-86 -13 c-7 -2 -21 -2 -30 0 -10 3 -4 5 12 5 17 0 24 -2
18 -5z m-65 -10 c-10 -2 -26 -2 -35 0 -10 3 -2 5 17 5 19 0 27 -2 18 -5z m-80
-10 c-10 -2 -28 -2 -40 0 -13 2 -5 4 17 4 22 1 32 -1 23 -4z m236 -32 c-2 -3
-12 3 -22 13 -16 17 -16 18 5 5 12 -7 20 -15 17 -18z m335 -66 c-18 -19 -123
-60 -114 -45 3 5 12 10 18 10 7 0 32 11 57 25 54 28 59 30 39 10z m-133 -50
c-1 -8 -5 -17 -8 -21 -5 -4 -4 16 1 34 3 9 9 -1 7 -13z m-396 -10 c-14 -8 -29
-14 -35 -14 -5 0 1 6 15 14 14 8 30 14 35 14 6 0 -1 -6 -15 -14z m366 -7 c-1
-7 -7 -21 -12 -32 -11 -17 -11 -17 -17 3 -3 13 1 25 11 31 22 12 21 12 18 -2z
m-156 -32 c0 -6 -123 -47 -127 -42 -2 2 22 13 54 24 62 22 73 24 73 18z m-150
-56 c-8 -5 -19 -10 -25 -10 -5 0 -3 5 5 10 8 5 20 10 25 10 6 0 3 -5 -5 -10z
m250 -35 c0 -2 -10 -9 -22 -15 -22 -11 -22 -10 -4 4 21 17 26 19 26 11z m15
-69 c-21 -24 -65 -67 -98 -96 -47 -41 -39 -30 33 43 52 53 96 97 98 97 2 0
-13 -20 -33 -44z m-95 19 c0 -2 -10 -9 -22 -15 -22 -11 -22 -10 -4 4 21 17 26
19 26 11z m-50 -30 c0 -2 -10 -9 -22 -15 -22 -11 -22 -10 -4 4 21 17 26 19 26
11z m-50 -30 c0 -2 -13 -11 -30 -20 -38 -19 -40 -11 -2 9 31 17 32 18 32 11z
m30 -108 c0 -2 -15 -16 -32 -33 l-33 -29 29 33 c28 30 36 37 36 29z m-13 -153
c-3 -3 -12 -4 -19 -1 -8 3 -5 6 6 6 11 1 17 -2 13 -5z m84 -50 c9 -11 2 -9
-18 6 -18 13 -33 25 -33 27 0 8 38 -17 51 -33z m54 6 c-10 -11 -22 -20 -28
-20 -5 0 1 9 14 20 31 25 37 25 14 0z"/>
<path d="M3486 3663 c-20 -25 -35 -47 -34 -49 2 -1 54 -25 117 -53 112 -51
141 -56 141 -27 0 8 4 18 10 21 6 4 6 -3 0 -21 -6 -15 -9 -28 -7 -30 5 -6 209
-76 277 -95 35 -10 68 -15 72 -11 4 4 11 28 14 54 l6 46 -92 22 c-124 29 -203
59 -337 130 -62 33 -117 60 -122 60 -4 0 -25 -21 -45 -47z m544 -172 c0 -4
-11 -6 -25 -3 -14 2 -25 6 -25 8 0 2 11 4 25 4 14 0 25 -4 25 -9z m-55 -11 c3
-5 -1 -10 -10 -10 -9 0 -13 5 -10 10 3 6 8 10 10 10 2 0 7 -4 10 -10z"/>
<path d="M6496 3658 c17 -18 44 -51 60 -74 80 -112 109 -136 212 -172 145 -50
136 -48 123 -24 -20 37 -168 139 -251 173 -81 34 -102 51 -33 29 63 -21 146
-66 193 -105 24 -20 46 -32 48 -26 2 6 9 8 15 4 7 -4 6 1 -2 10 -8 10 -16 15
-19 13 -3 -3 -21 7 -41 23 -20 16 -78 53 -128 82 -51 30 -110 64 -130 76 -21
13 -47 23 -57 23 -17 0 -16 -4 10 -32z"/>
<path d="M1697 3599 c-20 -27 -35 -49 -33 -49 7 0 79 90 75 94 -2 2 -21 -19
-42 -45z"/>
<path d="M5085 3624 c-44 -14 -102 -31 -130 -38 -38 -10 -46 -15 -32 -21 11
-5 62 8 140 35 67 24 124 45 126 46 11 10 -32 1 -104 -22z"/>
<path d="M5072 3589 c-122 -43 -243 -73 -334 -84 l-57 -7 16 -27 c10 -14 18
-27 18 -29 1 -1 40 5 86 14 72 13 423 125 437 139 9 8 -20 35 -37 34 -9 0 -67
-18 -129 -40z"/>
<path d="M4050 3600 c8 -5 22 -9 30 -9 10 0 8 3 -5 9 -27 12 -43 12 -25 0z"/>
<path d="M3419 3566 c-8 -17 -31 -60 -53 -96 -32 -53 -166 -330 -166 -345 0
-2 12 -6 28 -8 26 -4 26 -4 -4 -6 -26 -1 -34 -7 -47 -38 -9 -21 -43 -101 -76
-178 -43 -100 -56 -142 -48 -147 8 -5 8 -8 -3 -8 -10 0 -40 -56 -85 -156 -38
-86 -72 -161 -73 -166 -2 -5 9 -6 25 -3 22 4 23 3 8 -3 -16 -7 -17 -10 -5 -14
8 -3 3 -4 -12 -2 -25 3 -28 -1 -38 -39 -6 -23 -13 -47 -15 -54 -2 -6 4 -14 13
-16 16 -4 16 -5 0 -6 -10 0 -20 -11 -23 -23 -13 -57 -28 -159 -32 -220 -5 -58
-3 -67 13 -71 17 -4 17 -5 2 -6 -14 -1 -18 -10 -18 -45 l0 -43 53 -16 c28 -9
39 -14 22 -11 -16 3 -38 7 -47 10 -13 4 -18 0 -18 -15 0 -45 32 -56 347 -113
250 -44 370 -57 549 -58 214 0 284 7 284 30 0 16 -15 17 -192 15 l-193 -3 170
8 c94 4 180 8 192 9 21 1 22 5 22 134 1 72 4 158 7 189 l7 57 -109 4 -109 3
108 2 c94 2 107 4 107 20 0 9 3 27 6 39 6 21 2 22 -57 26 l-64 3 61 2 61 2 0
303 c0 166 3 321 7 344 l8 42 -74 4 -73 3 71 2 72 2 4 41 c2 22 2 42 -1 45 -2
2 -34 4 -70 5 -36 0 -102 7 -146 14 -58 11 -65 13 -25 9 30 -2 99 -7 153 -11
l97 -6 2 89 c2 103 3 125 13 216 l8 67 -39 10 c-22 5 -59 15 -83 21 -59 16
-266 92 -376 140 -125 54 -131 54 -146 16z m166 -141 c11 -8 -16 3 -60 26 -44
22 -84 46 -90 51 -14 15 126 -57 150 -77z m-108 10 c0 -8 -4 -12 -9 -9 -4 3
-8 9 -8 15 0 5 4 9 8 9 5 0 9 -7 9 -15z m178 -45 c3 -5 -4 -6 -15 -3 -11 3
-22 9 -25 13 -3 5 4 6 15 3 11 -3 22 -9 25 -13z m-134 -7 c13 -16 12 -17 -3
-4 -17 13 -22 21 -14 21 2 0 10 -8 17 -17z m179 -13 c8 -5 11 -10 5 -10 -5 0
-17 5 -25 10 -8 5 -10 10 -5 10 6 0 17 -5 25 -10z m-97 -64 c4 4 7 2 7 -4 0
-21 -15 -13 -51 26 l-34 37 36 -33 c19 -18 38 -29 42 -26z m-163 -1 c0 -3 -18
4 -40 15 -22 11 -40 23 -40 25 0 3 18 -4 40 -15 22 -11 40 -23 40 -25z m360
20 c14 -8 21 -14 15 -14 -5 0 -21 6 -35 14 -14 8 -20 14 -15 14 6 0 21 -6 35
-14z m-275 -70 c11 -9 2 -7 -20 6 -22 12 -44 26 -50 32 -16 15 48 -20 70 -38z
m385 25 c8 -5 11 -10 5 -10 -5 0 -17 5 -25 10 -8 5 -10 10 -5 10 6 0 17 -5 25
-10z m-130 -30 c0 -5 -2 -10 -4 -10 -3 0 -8 5 -11 10 -3 6 -1 10 4 10 6 0 11
-4 11 -10z m240 -12 c10 -6 7 -7 -10 -2 -14 3 -32 11 -40 16 -10 6 -7 7 10 2
14 -3 32 -11 40 -16z m-415 -26 c19 -13 19 -14 -5 -7 -14 4 -32 14 -40 22 -13
12 -13 13 5 7 11 -4 29 -14 40 -22z m163 -72 c3 0 3 -2 0 -5 -5 -6 -118 42
-118 50 0 2 25 -6 56 -20 31 -14 59 -25 62 -25z m255 6 c9 5 9 4 0 -6 -13 -15
-37 -4 -26 13 5 8 8 8 11 -1 2 -7 9 -9 15 -6z m-140 -51 c9 -4 17 -13 17 -21
0 -10 -6 -8 -20 6 -11 11 -29 20 -39 20 -11 0 -22 4 -26 9 -5 9 27 2 68 -14z
m-503 -5 c28 -8 25 -8 -18 -4 -29 3 -65 10 -80 15 -35 11 47 2 98 -11z m234
-37 c66 -9 114 -19 108 -21 -14 -4 -295 37 -302 45 -3 3 13 3 35 0 22 -4 94
-14 159 -24z m-379 -43 c27 -7 27 -8 5 -8 -14 0 -38 4 -55 8 -27 7 -27 8 -5 8
14 0 39 -4 55 -8z m78 -17 c-7 -2 -19 -2 -25 0 -7 3 -2 5 12 5 14 0 19 -2 13
-5z m148 -21 c31 -12 40 -30 27 -54 -18 -36 -78 -19 -78 22 0 26 -5 30 -42 38
l-43 10 55 -3 c30 -2 67 -8 81 -13z m72 -19 c-7 -2 -19 -2 -25 0 -7 3 -2 5 12
5 14 0 19 -2 13 -5z m147 -18 c58 -8 128 -15 155 -16 46 -2 47 -3 11 -6 -37
-4 -286 24 -295 33 -7 6 15 5 129 -11z m-163 -107 c-2 -13 -4 -5 -4 17 -1 22
1 32 4 23 2 -10 2 -28 0 -40z m466 21 c-6 -6 -19 -9 -29 -6 -16 4 -15 5 4 6
12 0 22 6 22 13 0 6 3 8 7 5 4 -4 2 -12 -4 -18z m-886 -115 c-3 -3 -12 -4 -19
-1 -8 3 -5 6 6 6 11 1 17 -2 13 -5z m70 -20 c-3 -3 -12 -4 -19 -1 -8 3 -5 6 6
6 11 1 17 -2 13 -5z m80 -20 c-3 -3 -12 -4 -19 -1 -8 3 -5 6 6 6 11 1 17 -2
13 -5z m110 -30 c-3 -3 -12 -4 -19 -1 -8 3 -5 6 6 6 11 1 17 -2 13 -5z m46
-11 c-7 -2 -19 -2 -25 0 -7 3 -2 5 12 5 14 0 19 -2 13 -5z m157 -29 c0 -2 -16
-4 -35 -4 -19 0 -35 4 -35 8 0 4 16 6 35 4 19 -2 35 -6 35 -8z m88 -11 c-10
-2 -28 -2 -40 0 -13 2 -5 4 17 4 22 1 32 -1 23 -4z m105 -10 c-13 -2 -33 -2
-45 0 -13 2 -3 4 22 4 25 0 35 -2 23 -4z m125 -10 c-10 -2 -28 -2 -40 0 -13 2
-5 4 17 4 22 1 32 -1 23 -4z m110 -10 c-10 -2 -26 -2 -35 0 -10 3 -2 5 17 5
19 0 27 -2 18 -5z m-1011 -179 c-3 -3 -12 -4 -19 -1 -8 3 -5 6 6 6 11 1 17 -2
13 -5z m96 -44 c34 -10 56 -19 50 -19 -16 -1 -166 39 -173 46 -7 7 48 -5 123
-27z m64 4 c-3 -3 -12 -4 -19 -1 -8 3 -5 6 6 6 11 1 17 -2 13 -5z m40 -10 c-3
-3 -12 -4 -19 -1 -8 3 -5 6 6 6 11 1 17 -2 13 -5z m40 -10 c-3 -3 -12 -4 -19
-1 -8 3 -5 6 6 6 11 1 17 -2 13 -5z m58 -33 c72 -16 141 -31 155 -34 l25 -4
-27 -2 c-26 -1 -277 55 -287 64 -7 7 -5 7 134 -24z m-8 23 c-3 -3 -12 -4 -19
-1 -8 3 -5 6 6 6 11 1 17 -2 13 -5z m100 -20 c-3 -3 -12 -4 -19 -1 -8 3 -5 6
6 6 11 1 17 -2 13 -5z m101 -21 c-10 -2 -26 -2 -35 0 -10 3 -2 5 17 5 19 0 27
-2 18 -5z m135 -20 c-7 -2 -21 -2 -30 0 -10 3 -4 5 12 5 17 0 24 -2 18 -5z
m-116 -9 c-3 -3 -12 -4 -19 -1 -8 3 -5 6 6 6 11 1 17 -2 13 -5z m190 0 c-3 -3
-12 -4 -19 -1 -8 3 -5 6 6 6 11 1 17 -2 13 -5z m-672 -14 c13 -5 14 -9 5 -9
-8 0 -24 4 -35 9 -13 5 -14 9 -5 9 8 0 24 -4 35 -9z m580 1 c34 -7 35 -9 10
-9 -16 0 -43 4 -60 8 -42 11 -1 11 50 1z m258 -8 c-7 -2 -21 -2 -30 0 -10 3
-4 5 12 5 17 0 24 -2 18 -5z m-44 -19 c8 -7 -73 -3 -119 6 -34 6 -25 7 35 3
44 -3 82 -7 84 -9z m144 9 c-13 -2 -33 -2 -45 0 -13 2 -3 4 22 4 25 0 35 -2
23 -4z m-846 -9 c-3 -3 -12 -4 -19 -1 -8 3 -5 6 6 6 11 1 17 -2 13 -5z m73
-14 c20 -6 21 -8 5 -8 -11 0 -31 4 -45 8 -20 6 -21 8 -5 8 11 0 31 -4 45 -8z
m703 3 c-13 -2 -33 -2 -45 0 -13 2 -3 4 22 4 25 0 35 -2 23 -4z m-640 -20 c-7
-2 -19 -2 -25 0 -7 3 -2 5 12 5 14 0 19 -2 13 -5z m50 -10 c-7 -2 -19 -2 -25
0 -7 3 -2 5 12 5 14 0 19 -2 13 -5z m50 -10 c-7 -2 -19 -2 -25 0 -7 3 -2 5 12
5 14 0 19 -2 13 -5z m60 -10 c-7 -2 -21 -2 -30 0 -10 3 -4 5 12 5 17 0 24 -2
18 -5z m70 -10 c-7 -2 -21 -2 -30 0 -10 3 -4 5 12 5 17 0 24 -2 18 -5z m-156
-25 c-3 -8 -6 -5 -6 6 -1 11 2 17 5 13 3 -3 4 -12 1 -19z m226 15 c-7 -2 -21
-2 -30 0 -10 3 -4 5 12 5 17 0 24 -2 18 -5z m75 -10 c-10 -2 -26 -2 -35 0 -10
3 -2 5 17 5 19 0 27 -2 18 -5z m-705 -10 c-7 -2 -21 -2 -30 0 -10 3 -4 5 12 5
17 0 24 -2 18 -5z m825 0 c-16 -2 -40 -2 -55 0 -16 2 -3 4 27 4 30 0 43 -2 28
-4z m-743 -13 c14 -7 8 -8 -20 -3 -22 3 -42 7 -44 9 -9 8 45 2 64 -6z m85 -20
c20 -6 21 -8 5 -8 -11 0 -29 3 -40 8 -25 11 1 11 35 0z m57 -16 c-3 -3 -12 -4
-19 -1 -8 3 -5 6 6 6 11 1 17 -2 13 -5z m90 -20 c-3 -3 -12 -4 -19 -1 -8 3 -5
6 6 6 11 1 17 -2 13 -5z m83 -14 c11 -7 5 -8 -20 -4 -43 8 -51 14 -19 14 13 0
31 -5 39 -10z m73 -17 c-7 -2 -19 -2 -25 0 -7 3 -2 5 12 5 14 0 19 -2 13 -5z
m54 -9 c-3 -3 -12 -4 -19 -1 -8 3 -5 6 6 6 11 1 17 -2 13 -5z m76 -11 c-7 -2
-21 -2 -30 0 -10 3 -4 5 12 5 17 0 24 -2 18 -5z m70 -10 c-7 -2 -21 -2 -30 0
-10 3 -4 5 12 5 17 0 24 -2 18 -5z m105 -10 c-10 -2 -28 -2 -40 0 -13 2 -5 4
17 4 22 1 32 -1 23 -4z m235 -10 c-29 -2 -78 -2 -110 0 -32 2 -8 3 52 3 61 0
87 -1 58 -3z m-636 -40 c-3 -10 -5 -4 -5 12 0 17 2 24 5 18 2 -7 2 -21 0 -30z
m-322 1 c38 -13 38 -13 5 -7 -19 3 -53 12 -75 19 -38 13 -38 13 -5 7 19 -3 53
-12 75 -19z m78 -21 c-7 -2 -19 -2 -25 0 -7 3 -2 5 12 5 14 0 19 -2 13 -5z
m249 -33 c3 -19 0 -30 -7 -30 -7 0 -10 11 -7 30 2 17 5 30 7 30 2 0 5 -13 7
-30z m-127 6 c28 -8 43 -15 35 -15 -8 0 -37 6 -65 13 -27 8 -43 15 -35 15 8 0
38 -6 65 -13z m88 -23 c-7 -2 -19 -2 -25 0 -7 3 -2 5 12 5 14 0 19 -2 13 -5z
m142 -23 c42 -11 1 -11 -50 -1 -34 7 -35 9 -10 9 17 0 44 -4 60 -8z m-438 -6
c-3 -3 -12 -4 -19 -1 -8 3 -5 6 6 6 11 1 17 -2 13 -5z m73 -14 c20 -6 21 -8 5
-8 -11 0 -31 4 -45 8 -20 6 -21 8 -5 8 11 0 31 -4 45 -8z m433 3 c-7 -2 -19
-2 -25 0 -7 3 -2 5 12 5 14 0 19 -2 13 -5z m60 -10 c-7 -2 -21 -2 -30 0 -10 3
-4 5 12 5 17 0 24 -2 18 -5z m-430 -10 c-7 -2 -19 -2 -25 0 -7 3 -2 5 12 5 14
0 19 -2 13 -5z m505 0 c-10 -2 -26 -2 -35 0 -10 3 -2 5 17 5 19 0 27 -2 18 -5z
m385 0 c-7 -2 -19 -2 -25 0 -7 3 -2 5 12 5 14 0 19 -2 13 -5z m-846 -9 c-3 -3
-12 -4 -19 -1 -8 3 -5 6 6 6 11 1 17 -2 13 -5z m706 -1 c-40 -2 -106 -2 -145
0 -40 1 -8 3 72 3 80 0 112 -2 73 -3z m-660 -10 c-7 -2 -19 -2 -25 0 -7 3 -2
5 12 5 14 0 19 -2 13 -5z m50 -10 c-7 -2 -19 -2 -25 0 -7 3 -2 5 12 5 14 0 19
-2 13 -5z m102 -12 l40 -9 -35 0 c-19 0 -48 4 -65 8 -27 7 -28 8 -5 8 14 1 43
-3 65 -7z m93 -18 c-10 -2 -26 -2 -35 0 -10 3 -2 5 17 5 19 0 27 -2 18 -5z
m70 -10 c-10 -2 -26 -2 -35 0 -10 3 -2 5 17 5 19 0 27 -2 18 -5z m90 -10 c-10
-2 -28 -2 -40 0 -13 2 -5 4 17 4 22 1 32 -1 23 -4z"/>
<path d="M3422 2943 c2 -22 9 -29 31 -31 22 -3 27 1 27 18 0 13 -9 24 -26 30
-35 14 -36 13 -32 -17z"/>
<path d="M5090 3529 c-91 -33 -210 -69 -265 -81 -55 -12 -101 -22 -102 -23 -1
0 6 -26 15 -58 14 -53 18 -58 39 -53 58 14 73 14 28 0 -27 -9 -51 -17 -52 -18
-2 -1 14 -88 22 -123 4 -19 9 -21 37 -12 49 14 59 9 13 -6 -22 -7 -40 -17 -39
-21 4 -34 38 -144 44 -144 5 0 37 9 71 20 35 10 65 17 67 15 2 -2 -28 -13 -67
-25 -54 -17 -71 -26 -71 -40 0 -37 11 -50 39 -45 l26 5 -25 -10 c-13 -6 -26
-12 -27 -14 -2 -2 10 -88 26 -192 30 -189 54 -357 54 -382 0 -9 8 -11 25 -7
53 13 85 14 41 1 -26 -7 -52 -16 -58 -20 -15 -10 -14 -66 2 -66 8 0 9 -2 1 -8
-6 -4 -15 -53 -18 -110 -4 -57 -11 -116 -16 -132 -8 -29 -7 -30 23 -31 l32 -2
-34 -6 c-27 -5 -36 -12 -42 -34 -6 -21 -4 -27 9 -28 14 0 14 -2 2 -6 -19 -7
-40 -33 -40 -50 0 -9 16 -13 53 -14 28 0 95 -6 147 -13 70 -10 99 -10 109 -2
11 8 13 8 7 -1 -4 -7 -3 -13 1 -13 5 0 73 -11 151 -25 141 -25 143 -25 163 -6
12 11 27 31 34 44 l13 25 -72 11 -71 10 78 -6 77 -5 14 34 14 33 -41 6 -42 6
46 1 c46 2 46 2 66 55 l20 52 -46 6 -46 6 47 1 c52 2 47 -5 68 94 5 26 13 93
16 148 6 82 4 104 -7 111 -10 6 -10 9 -1 9 8 0 12 16 12 45 0 52 15 50 -134
13 -43 -10 -83 -17 -88 -16 -5 2 34 14 89 27 148 34 140 31 119 46 -11 9 -13
14 -5 17 14 5 -39 318 -53 318 -5 0 -6 5 -3 10 5 8 -41 267 -49 277 -1 1 -62
-20 -135 -48 -73 -27 -135 -48 -137 -46 -3 2 55 26 127 52 72 27 133 54 136
61 6 16 -19 60 -120 219 -62 97 -88 130 -103 129 -10 -1 -95 -33 -189 -72 -93
-38 -181 -72 -195 -76 l-25 -6 25 11 c46 22 104 46 225 94 66 26 130 53 142
59 l22 11 -27 36 -27 36 -165 -58z m-91 -103 c-3 -3 -11 5 -18 17 -13 21 -12
21 5 5 10 -10 16 -20 13 -22z m386 -65 c-13 -12 -207 -92 -212 -87 -3 3 201
93 217 95 2 1 0 -3 -5 -8z m-498 -27 c-3 -3 -12 -4 -19 -1 -8 3 -5 6 6 6 11 1
17 -2 13 -5z m56 -54 c-9 -16 -21 -30 -25 -30 -5 0 1 14 14 30 12 17 23 30 25
30 2 0 -4 -13 -14 -30z m145 -44 c-7 -8 -15 -12 -17 -11 -5 6 10 25 20 25 5 0
4 -6 -3 -14z m-43 -16 c-11 -5 -27 -9 -35 -9 -9 0 -8 4 5 9 11 5 27 9 35 9 9
0 8 -4 -5 -9z m135 -30 c0 -5 -7 -7 -15 -4 -8 4 -12 10 -9 15 6 11 24 2 24
-11z m-265 -10 c-11 -5 -27 -9 -35 -9 -9 0 -8 4 5 9 11 5 27 9 35 9 9 0 8 -4
-5 -9z m510 -5 c-16 -8 -37 -14 -45 -14 -8 0 1 7 20 14 46 18 64 17 25 0z
m-65 -19 c0 -6 -93 -37 -97 -32 -2 2 15 11 39 19 47 17 58 19 58 13z m-135
-51 c-16 -8 -37 -14 -45 -14 -8 0 1 7 20 14 46 18 64 17 25 0z m-90 -30 c-16
-8 -37 -14 -45 -14 -8 0 1 7 20 14 46 18 64 17 25 0z m-95 -30 c-19 -7 -42
-13 -50 -13 -8 0 1 6 20 13 19 7 42 13 50 13 8 0 -1 -6 -20 -13z m210 -20 c0
-6 -129 -45 -144 -44 -6 1 21 11 59 24 76 25 85 27 85 20z m-210 -65 c-8 -5
-19 -10 -25 -10 -5 0 -3 5 5 10 8 5 20 10 25 10 6 0 3 -5 -5 -10z m-55 -9
c-13 -11 -77 -32 -82 -27 -2 2 15 11 39 19 53 19 54 19 43 8z m19 -27 c3 -8 2
-12 -4 -9 -6 3 -10 10 -10 16 0 14 7 11 14 -7z m173 -156 c-3 -8 -6 -5 -6 6
-1 11 2 17 5 13 3 -3 4 -12 1 -19z m23 -52 c0 -3 -4 -8 -10 -11 -5 -3 -10 -1
-10 4 0 6 5 11 10 11 6 0 10 -2 10 -4z m-3 -88 c-2 -13 -4 -5 -4 17 -1 22 1
32 4 23 2 -10 2 -28 0 -40z m-190 26 c-3 -3 -12 -4 -19 -1 -8 3 -5 6 6 6 11 1
17 -2 13 -5z m460 -190 c-3 -3 -12 -4 -19 -1 -8 3 -5 6 6 6 11 1 17 -2 13 -5z
m-52 -14 c-11 -5 -29 -8 -40 -8 -16 0 -15 2 5 8 34 11 60 11 35 0z m-68 -16
c-3 -3 -12 -4 -19 -1 -8 3 -5 6 6 6 11 1 17 -2 13 -5z m70 -10 c-3 -3 -12 -4
-19 -1 -8 3 -5 6 6 6 11 1 17 -2 13 -5z m-187 -14 c0 -5 -5 -10 -11 -10 -5 0
-7 5 -4 10 3 6 8 10 11 10 2 0 4 -4 4 -10z m37 4 c-3 -3 -12 -4 -19 -1 -8 3
-5 6 6 6 11 1 17 -2 13 -5z m110 0 c-3 -3 -12 -4 -19 -1 -8 3 -5 6 6 6 11 1
17 -2 13 -5z m-40 -10 c-3 -3 -12 -4 -19 -1 -8 3 -5 6 6 6 11 1 17 -2 13 -5z
m-190 -20 c-3 -3 -12 -4 -19 -1 -8 3 -5 6 6 6 11 1 17 -2 13 -5z m112 2 c-7
-7 -211 -57 -215 -53 -3 2 37 15 88 29 88 24 136 33 127 24z m-152 -12 c-3 -3
-12 -4 -19 -1 -8 3 -5 6 6 6 11 1 17 -2 13 -5z m516 -1 c-7 -2 -19 -2 -25 0
-7 3 -2 5 12 5 14 0 19 -2 13 -5z m-556 -9 c-3 -3 -12 -4 -19 -1 -8 3 -5 6 6
6 11 1 17 -2 13 -5z m500 0 c-3 -3 -12 -4 -19 -1 -8 3 -5 6 6 6 11 1 17 -2 13
-5z m-567 -19 c-19 -7 -42 -13 -50 -13 -8 0 1 6 20 13 19 7 42 13 50 13 8 0
-1 -6 -20 -13z m513 8 c-7 -2 -21 -2 -30 0 -10 3 -4 5 12 5 17 0 24 -2 18 -5z
m-60 -10 c-7 -2 -19 -2 -25 0 -7 3 -2 5 12 5 14 0 19 -2 13 -5z m-86 -19 c-3
-3 -12 -4 -19 -1 -8 3 -5 6 6 6 11 1 17 -2 13 -5z m-112 -24 c-11 -5 -29 -9
-40 -9 l-20 0 20 9 c11 5 29 9 40 9 l20 0 -20 -9z m-148 -36 c-3 -3 -12 -4
-19 -1 -8 3 -5 6 6 6 11 1 17 -2 13 -5z m476 -61 c-13 -2 -33 -2 -45 0 -13 2
-3 4 22 4 25 0 35 -2 23 -4z m-155 -10 c-10 -2 -28 -2 -40 0 -13 2 -5 4 17 4
22 1 32 -1 23 -4z m-178 -13 c0 -5 -19 -9 -42 -9 l-43 2 40 7 c22 4 41 8 43 9
1 0 2 -3 2 -9z m58 3 c-10 -2 -26 -2 -35 0 -10 3 -2 5 17 5 19 0 27 -2 18 -5z
m-155 -20 c-7 -2 -21 -2 -30 0 -10 3 -4 5 12 5 17 0 24 -2 18 -5z m-80 -10
c-7 -2 -19 -2 -25 0 -7 3 -2 5 12 5 14 0 19 -2 13 -5z m-56 -9 c-3 -3 -12 -4
-19 -1 -8 3 -5 6 6 6 11 1 17 -2 13 -5z m464 -31 c13 -17 13 -17 -6 -3 -11 8
-22 16 -24 17 -2 2 0 3 6 3 6 0 17 -8 24 -17z m-49 -20 c-3 -16 -7 -22 -10
-15 -4 13 4 42 11 42 2 0 2 -12 -1 -27z m88 -60 c0 -5 -60 -7 -132 -5 -249 4
-273 8 -70 10 111 1 202 -1 202 -5z m-437 -10 c-13 -2 -35 -2 -50 0 -16 2 -5
4 22 4 28 0 40 -2 28 -4z m-115 -10 c-10 -2 -26 -2 -35 0 -10 3 -2 5 17 5 19
0 27 -2 18 -5z m361 -89 c3 -3 -59 -2 -139 1 -80 4 -147 10 -150 13 -3 2 60 2
139 -2 80 -3 147 -9 150 -12z m94 -11 c-7 -2 -21 -2 -30 0 -10 3 -4 5 12 5 17
0 24 -2 18 -5z m-216 -49 c-7 -7 -199 -5 -206 2 -2 2 44 4 104 4 60 0 105 -3
102 -6z m61 -11 c-10 -2 -26 -2 -35 0 -10 3 -2 5 17 5 19 0 27 -2 18 -5z m95
-10 c-13 -2 -35 -2 -50 0 -16 2 -5 4 22 4 28 0 40 -2 28 -4z m102 -53 c3 -5 2
-10 -4 -10 -5 0 -13 5 -16 10 -3 6 -2 10 4 10 5 0 13 -4 16 -10z"/>
<path d="M4116 3548 c-3 -13 -6 -26 -6 -30 0 -9 45 -21 180 -48 114 -23 400
-40 400 -24 0 5 -6 19 -14 30 -12 17 -27 20 -126 23 -110 3 -113 2 -107 -18 3
-12 1 -21 -3 -21 -5 0 -10 10 -12 22 -2 17 -12 24 -38 29 -67 12 -239 49 -253
55 -9 3 -17 -3 -21 -18z m41 -4 c-3 -3 -12 -4 -19 -1 -8 3 -5 6 6 6 11 1 17
-2 13 -5z"/>
<path d="M4858 3560 c-14 -4 -62 -11 -107 -15 -86 -8 -111 -25 -37 -25 40 0
185 25 193 34 9 8 -24 12 -49 6z"/>
<path d="M4301 3546 c2 -2 29 -7 59 -10 37 -3 47 -2 30 4 -25 8 -97 13 -89 6z"/>
<path d="M4470 3519 c25 -4 77 -7 115 -7 l70 1 -65 7 c-36 4 -87 8 -115 8
l-50 -1 45 -8z"/>
<path d="M4093 3440 c-9 -42 -8 -50 6 -54 43 -13 339 -67 350 -64 8 2 13 -14
15 -47 2 -32 1 -43 -5 -30 -4 11 -8 29 -8 40 -1 18 -21 24 -184 56 -100 20
-184 35 -187 32 -2 -2 -7 -32 -11 -66 -5 -50 -3 -65 10 -76 15 -13 15 -13 0
-8 -14 5 -17 -9 -23 -100 -4 -58 -5 -107 -4 -108 10 -10 332 -47 442 -52 119
-5 299 7 313 20 3 3 0 21 -5 39 -6 18 -16 52 -22 76 l-11 42 -156 0 c-86 0
-154 3 -150 6 3 3 71 5 151 5 108 -1 146 1 146 10 0 7 -5 41 -11 76 l-11 63
-132 2 -131 2 129 3 128 4 -7 35 c-16 85 -10 82 -145 83 -133 1 -202 9 -354
41 -54 11 -104 20 -111 20 -7 0 -17 -22 -22 -50z m487 -70 c0 -5 -4 -10 -10
-10 -5 0 -10 5 -10 10 0 6 5 10 10 10 6 0 10 -4 10 -10z m-453 -156 c-3 -3
-12 -4 -19 -1 -8 3 -5 6 6 6 11 1 17 -2 13 -5z m90 -20 c-3 -3 -12 -4 -19 -1
-8 3 -5 6 6 6 11 1 17 -2 13 -5z m40 -10 c-3 -3 -12 -4 -19 -1 -8 3 -5 6 6 6
11 1 17 -2 13 -5z m46 -11 c-7 -2 -19 -2 -25 0 -7 3 -2 5 12 5 14 0 19 -2 13
-5z m60 -10 c-7 -2 -21 -2 -30 0 -10 3 -4 5 12 5 17 0 24 -2 18 -5z m65 -10
c-10 -2 -26 -2 -35 0 -10 3 -2 5 17 5 19 0 27 -2 18 -5z"/>
<path d="M1542 3443 c-6 -2 -10 -9 -6 -14 3 -5 0 -9 -6 -9 -6 0 -8 -5 -5 -10
9 -14 21 -5 28 20 3 11 4 20 4 19 -1 0 -8 -3 -15 -6z"/>
<path d="M6851 3447 c2 -1 12 -9 22 -16 15 -12 17 -12 11 3 -3 9 -13 16 -22
16 -8 0 -13 -1 -11 -3z"/>
<path d="M6689 3414 c19 -33 91 -245 91 -268 0 -25 44 -119 64 -135 19 -16
180 67 184 96 3 18 -4 24 -35 32 -74 19 -103 17 -104 -6 0 -10 -5 -5 -10 11
-10 37 -6 42 25 28 13 -6 44 -14 70 -17 l46 -7 0 61 0 61 -47 31 c-27 16 -48
34 -48 39 0 4 -4 12 -9 17 -5 5 -6 3 -2 -4 10 -17 1 -16 -36 3 -18 9 -61 27
-97 39 -36 13 -74 26 -84 30 -16 7 -17 5 -8 -11z m171 -108 c0 -3 -4 -8 -10
-11 -5 -3 -10 -1 -10 4 0 6 5 11 10 11 6 0 10 -2 10 -4z m47 -26 c-11 -18 -27
-27 -27 -15 0 13 25 43 32 39 4 -3 2 -14 -5 -24z m29 -58 c-4 -3 -12 0 -19 8
-9 10 -9 11 1 6 7 -5 12 -1 13 11 1 17 2 17 6 0 3 -10 2 -21 -1 -25z m-36 -3
c0 -11 -4 -17 -10 -14 -5 3 -10 13 -10 21 0 8 5 14 10 14 6 0 10 -9 10 -21z
m75 -19 c3 -6 -1 -7 -9 -4 -18 7 -21 14 -7 14 6 0 13 -4 16 -10z m-127 -40 c4
-12 2 -13 -9 -4 -8 7 -23 14 -34 17 -13 4 -9 5 9 4 16 -1 32 -9 34 -17z m49
-97 c-3 -10 -5 -2 -5 17 0 19 2 27 5 18 2 -10 2 -26 0 -35z m-22 -11 c-3 -3
-11 0 -18 7 -9 10 -8 11 6 5 10 -3 15 -9 12 -12z"/>
<path d="M1477 3404 c7 -3 9 -12 6 -20 -3 -7 -9 -11 -14 -8 -5 3 -6 -2 -3 -10
3 -9 13 -16 21 -16 8 0 11 -4 8 -10 -3 -5 -1 -10 4 -10 14 0 14 17 0 26 -6 3
-8 17 -5 30 5 19 2 24 -11 23 -10 0 -13 -3 -6 -5z"/>
<path d="M6910 3404 c0 -17 29 -52 72 -86 l43 -33 -32 40 c-39 50 -83 92 -83
79z"/>
<path d="M1504 3389 c-3 -6 -1 -16 5 -22 8 -8 11 -5 11 11 0 24 -5 28 -16 11z"/>
<path d="M1450 3351 c0 -8 8 -20 18 -27 15 -12 14 -12 -8 -8 l-25 6 24 -21
c28 -25 49 -28 30 -4 -8 9 -13 19 -13 22 1 3 -5 15 -12 26 -9 12 -14 14 -14 6z"/>
<path d="M1415 3302 c-24 -17 -3 -52 31 -52 14 0 23 -4 19 -9 -3 -5 0 -13 6
-17 7 -4 9 -3 5 4 -3 5 -1 12 4 14 6 2 -4 18 -22 35 -18 18 -38 29 -43 25z"/>
<path d="M7035 3240 c-4 -6 -4 -41 0 -77 5 -51 10 -63 22 -59 8 3 16 6 17 6 6
0 -15 114 -23 128 -6 11 -10 12 -16 2z"/>
<path d="M1407 3226 c-3 -7 0 -19 6 -26 9 -10 8 -12 -5 -7 -26 9 -22 0 14 -34
29 -26 33 -27 39 -12 4 10 3 22 -2 28 -13 14 -11 27 4 19 8 -5 7 -2 -2 9 -8
11 -21 15 -32 12 -14 -5 -17 -2 -13 9 3 9 4 16 1 16 -3 0 -7 -6 -10 -14z m44
-53 c13 -15 12 -15 -8 -4 -24 12 -29 21 -14 21 5 0 15 -7 22 -17z"/>
<path d="M7081 3195 c-3 -32 23 -147 43 -185 13 -25 26 -56 30 -70 6 -22 5
-21 -10 5 -39 72 -43 76 -64 63 -11 -7 -21 -22 -21 -33 -1 -17 -2 -17 -6 -2
-2 9 -7 17 -11 17 -11 0 -142 -93 -142 -100 0 -4 27 -64 60 -133 33 -69 60
-133 60 -143 0 -16 3 -15 20 6 40 50 94 145 93 162 -1 10 2 16 6 13 11 -6 28
37 36 91 5 32 0 53 -26 109 -17 38 -40 101 -49 140 -10 38 -18 66 -19 60z m-1
-280 c0 -5 -5 -3 -10 5 -5 8 -10 20 -10 25 0 6 5 3 10 -5 5 -8 10 -19 10 -25z
m50 -104 c-1 -10 -50 73 -50 84 0 6 11 -10 25 -34 14 -23 25 -46 25 -50z"/>
<path d="M1391 3143 c-1 -7 8 -17 19 -23 16 -9 18 -8 14 5 -3 8 -10 13 -14 10
-5 -3 -11 1 -13 7 -4 10 -6 10 -6 1z"/>
<path d="M7285 3135 c4 -11 7 -29 7 -40 -1 -15 1 -17 8 -5 5 8 4 22 -2 34 -15
29 -23 35 -13 11z"/>
<path d="M7320 3136 c0 -9 8 -12 27 -8 25 5 25 6 8 13 -29 11 -35 10 -35 -5z"/>
<path d="M7348 3113 c-23 -6 -31 -35 -18 -64 9 -21 9 -19 5 11 l-6 35 26 -30
c13 -16 25 -25 25 -18 0 6 -7 18 -15 27 -8 8 -15 17 -15 20 0 3 7 6 15 6 8 0
15 5 15 10 0 10 -3 11 -32 3z"/>
<path d="M1440 3097 c0 -19 16 -31 24 -18 3 5 -1 14 -9 21 -12 10 -15 10 -15
-3z"/>
<path d="M1407 3093 c-12 -11 -8 -21 15 -43 25 -23 38 -26 38 -7 0 17 -44 59
-53 50z"/>
<path d="M1640 3094 c1 -16 55 -87 65 -86 5 0 11 6 13 14 2 9 0 8 -7 -2 -6 -8
-11 -10 -11 -4 0 6 -13 28 -30 49 -16 21 -30 34 -30 29z"/>
<path d="M7261 3074 c0 -11 3 -14 6 -6 3 7 2 16 -1 19 -3 4 -6 -2 -5 -13z"/>
<path d="M7282 3053 c-8 -7 -11 -20 -8 -28 6 -18 32 -10 41 13 5 13 1 12 -16
-4 l-22 -19 12 23 c15 28 11 36 -7 15z"/>
<path d="M4047 2958 c-3 -24 -5 -44 -3 -45 1 -1 56 -9 121 -17 87 -11 99 -14
45 -11 -41 2 -96 7 -121 11 l-46 6 -6 -77 c-4 -43 -7 -113 -7 -156 0 -77 0
-78 28 -82 l27 -4 -27 -2 -28 -1 0 -185 0 -185 148 -2 147 -1 -140 -8 c-77 -3
-143 -7 -147 -8 -5 0 -8 -16 -8 -35 0 -32 3 -35 33 -39 31 -4 31 -4 -5 -5 -32
-2 -38 -6 -39 -24 0 -13 -2 -96 -5 -185 l-5 -163 25 0 c14 0 48 5 75 11 28 6
59 9 68 7 10 -2 -21 -10 -69 -18 -85 -13 -88 -14 -88 -39 1 -22 2 -24 13 -11
7 9 61 25 132 38 66 13 141 28 166 33 25 6 60 11 78 11 21 1 36 8 42 20 9 17
8 19 -8 15 -10 -3 -38 -8 -63 -11 -39 -5 -41 -4 -15 4 17 5 47 11 67 12 26 2
38 8 38 18 0 8 5 22 11 30 9 12 10 11 6 -7 -3 -14 0 -23 6 -23 7 0 4 -5 -5
-11 -10 -5 -18 -17 -18 -24 0 -8 8 -15 18 -15 13 0 14 2 4 9 -19 12 71 21 214
21 133 0 121 -6 153 73 15 39 14 45 -11 50 -21 4 -20 4 3 6 25 1 28 6 38 64
16 91 14 117 -6 118 -14 0 -13 2 5 9 20 9 22 16 22 85 0 41 -4 75 -9 75 -4 0
-33 -5 -62 -11 -59 -12 -225 -21 -216 -13 3 3 34 7 69 8 35 2 98 9 141 16 60
10 77 16 77 29 0 21 -32 246 -60 425 -11 71 -20 133 -20 137 0 5 -12 10 -27
10 -24 2 -25 2 -5 6 18 4 22 11 22 39 l0 34 -57 -7 c-114 -15 -391 -7 -545 15
-82 12 -152 22 -157 22 -4 0 -11 -19 -14 -42z m668 -78 c-27 -5 -75 -8 -105
-7 l-55 0 65 7 c36 4 83 7 105 7 37 0 37 0 -10 -7z m-337 -7 c-15 -2 -42 -2
-60 0 -18 2 -6 4 27 4 33 0 48 -2 33 -4z m142 -3 c0 -6 -23 -9 -52 -8 l-53 1
50 7 c28 4 51 8 53 8 1 1 2 -2 2 -8z m9 -124 c-1 -31 -1 -31 -8 4 -4 20 -11
42 -15 50 -4 8 0 6 8 -4 9 -11 15 -34 15 -50z m281 -50 c0 -3 -4 -8 -10 -11
-5 -3 -10 -1 -10 4 0 6 5 11 10 11 6 0 10 -2 10 -4z m22 -38 c-9 -9 -15 -9
-24 1 -9 10 -9 12 -1 7 6 -3 15 -1 18 5 4 5 10 8 13 4 3 -3 0 -11 -6 -17z m11
-45 c-7 -2 -21 -2 -30 0 -10 3 -4 5 12 5 17 0 24 -2 18 -5z m-80 -10 c-13 -2
-33 -2 -45 0 -13 2 -3 4 22 4 25 0 35 -2 23 -4z m-240 -10 c-40 -2 -107 -2
-150 0 -43 1 -10 3 72 3 83 0 118 -2 78 -3z m50 -354 c30 -1 30 -2 -8 -9 -22
-4 -85 -10 -140 -13 -73 -4 -85 -3 -45 3 30 4 76 8 103 9 37 1 47 5 48 19 0
10 3 12 6 5 2 -7 19 -14 36 -14z m20 14 c-7 -2 -21 -2 -30 0 -10 3 -4 5 12 5
17 0 24 -2 18 -5z m70 -10 c-7 -2 -21 -2 -30 0 -10 3 -4 5 12 5 17 0 24 -2 18
-5z m-286 -9 c-3 -3 -12 -4 -19 -1 -8 3 -5 6 6 6 11 1 17 -2 13 -5z m-109 -11
c-21 -2 -55 -2 -75 0 -21 2 -4 4 37 4 41 0 58 -2 38 -4z m619 -9 c-3 -3 -12
-4 -19 -1 -8 3 -5 6 6 6 11 1 17 -2 13 -5z m-62 -14 c-16 -4 -39 -8 -50 -8
-16 0 -15 2 5 8 14 4 36 8 50 8 22 0 22 -1 -5 -8z m-92 -17 c-7 -2 -21 -2 -30
0 -10 3 -4 5 12 5 17 0 24 -2 18 -5z m-80 -10 c-7 -2 -19 -2 -25 0 -7 3 -2 5
12 5 14 0 19 -2 13 -5z m-118 -13 c-3 -5 -25 -9 -48 -8 l-42 1 45 7 c25 4 46
8 48 8 2 1 0 -2 -3 -8z m-117 -17 c-10 -2 -28 -2 -40 0 -13 2 -5 4 17 4 22 1
32 -1 23 -4z m-95 -10 c-13 -2 -33 -2 -45 0 -13 2 -3 4 22 4 25 0 35 -2 23 -4z
m-105 -10 c-16 -2 -40 -2 -55 0 -16 2 -3 4 27 4 30 0 43 -2 28 -4z m399 -59
c-3 -3 -12 -4 -19 -1 -8 3 -5 6 6 6 11 1 17 -2 13 -5z m-91 -23 c-4 -6 -14 -7
-23 -4 -15 6 -14 7 3 13 22 9 29 6 20 -9z m41 13 c-3 -3 -12 -4 -19 -1 -8 3
-5 6 6 6 11 1 17 -2 13 -5z m-104 -21 c-7 -2 -19 -2 -25 0 -7 3 -2 5 12 5 14
0 19 -2 13 -5z m-60 -10 c-7 -2 -19 -2 -25 0 -7 3 -2 5 12 5 14 0 19 -2 13 -5z
m-66 -9 c-3 -3 -12 -4 -19 -1 -8 3 -5 6 6 6 11 1 17 -2 13 -5z m-64 -11 c-7
-2 -21 -2 -30 0 -10 3 -4 5 12 5 17 0 24 -2 18 -5z m-90 -10 c-7 -2 -21 -2
-30 0 -10 3 -4 5 12 5 17 0 24 -2 18 -5z m-90 -10 c-7 -2 -21 -2 -30 0 -10 3
-4 5 12 5 17 0 24 -2 18 -5z m704 1 c-3 -3 -12 -4 -19 -1 -8 3 -5 6 6 6 11 1
17 -2 13 -5z m-40 -10 c-3 -3 -12 -4 -19 -1 -8 3 -5 6 6 6 11 1 17 -2 13 -5z
m-90 -20 c-3 -3 -12 -4 -19 -1 -8 3 -5 6 6 6 11 1 17 -2 13 -5z m-100 -30 c-3
-3 -12 -4 -19 -1 -8 3 -5 6 6 6 11 1 17 -2 13 -5z m-67 -14 c0 -5 -5 -10 -11
-10 -5 0 -7 5 -4 10 3 6 8 10 11 10 2 0 4 -4 4 -10z m-83 -26 c-3 -3 -12 -4
-19 -1 -8 3 -5 6 6 6 11 1 17 -2 13 -5z m-57 -14 c-14 -4 -34 -8 -45 -8 -16 0
-15 2 5 8 14 4 34 8 45 8 16 0 15 -2 -5 -8z m479 -4 c-2 -2 -35 -6 -74 -9 -45
-3 -58 -3 -35 2 37 9 116 14 109 7z m-552 -12 c-3 -3 -12 -4 -19 -1 -8 3 -5 6
6 6 11 1 17 -2 13 -5z m-44 -11 c-7 -2 -19 -2 -25 0 -7 3 -2 5 12 5 14 0 19
-2 13 -5z m440 0 c-7 -2 -21 -2 -30 0 -10 3 -4 5 12 5 17 0 24 -2 18 -5z
m-490 -10 c-7 -2 -19 -2 -25 0 -7 3 -2 5 12 5 14 0 19 -2 13 -5z m400 0 c-7
-2 -21 -2 -30 0 -10 3 -4 5 12 5 17 0 24 -2 18 -5z m-468 -13 c-16 -4 -46 -8
-65 -7 l-35 0 40 7 c22 4 51 7 65 7 22 1 22 0 -5 -7z m192 -36 c-3 -3 -12 -4
-19 -1 -8 3 -5 6 6 6 11 1 17 -2 13 -5z m-40 -10 c-3 -3 -12 -4 -19 -1 -8 3
-5 6 6 6 11 1 17 -2 13 -5z m-50 -10 c-3 -3 -12 -4 -19 -1 -8 3 -5 6 6 6 11 1
17 -2 13 -5z"/>
<path d="M7180 2820 c0 -7 -8 -22 -17 -33 -11 -12 -12 -17 -4 -12 11 6 13 2 9
-19 -3 -14 -2 -29 2 -31 8 -5 22 96 15 104 -3 2 -5 -2 -5 -9z"/>
<path d="M1696 2505 c4 -8 11 -15 16 -15 6 0 5 6 -2 15 -7 8 -14 15 -16 15 -2
0 -1 -7 2 -15z"/>
<path d="M6950 2242 c-35 -36 -130 -116 -211 -178 -80 -63 -152 -121 -159
-129 -12 -14 -10 -15 15 -9 30 7 253 181 343 268 47 45 90 104 80 110 -2 1
-32 -27 -68 -62z"/>
<path d="M2110 2113 c1 -21 41 -52 100 -77 36 -15 88 -39 115 -54 30 -15 45
-20 38 -10 -7 8 -57 37 -110 64 -54 27 -100 52 -101 56 -5 12 -42 30 -42 21z"/>
<path d="M2485 1906 c61 -30 142 -64 180 -76 39 -12 88 -31 110 -41 44 -21 65
-25 49 -10 -5 6 -72 35 -149 65 -77 30 -170 68 -207 85 -113 52 -100 34 17
-23z"/>
<path d="M4850 1791 c27 -16 128 -32 207 -34 43 -1 80 -5 83 -9 3 -4 66 -16
140 -28 159 -25 170 -26 235 -40 28 -6 129 -13 225 -17 162 -5 177 -4 198 13
22 19 22 19 -75 21 -113 3 -293 21 -342 33 -25 7 -37 5 -47 -5 -10 -10 -22
-11 -42 -5 -67 22 -503 81 -582 80 -13 -1 -13 -2 0 -9z"/>
</g>
</svg>
